<mxfile host="app.diagrams.net" agent="Mozilla/5.0 (Windows NT 10.0; Win64; x64; rv:136.0) Gecko/20100101 Firefox/136.0" version="26.1.0">
  <diagram id="C5RBs43oDa-KdzZeNtuy" name="Diagramme de classe Livrai">
    <mxGraphModel dx="2074" dy="746" grid="1" gridSize="10" guides="1" tooltips="1" connect="1" arrows="1" fold="1" page="1" pageScale="1" pageWidth="827" pageHeight="1169" math="0" shadow="0">
      <root>
        <mxCell id="WIyWlLk6GJQsqaUBKTNV-0" />
        <mxCell id="WIyWlLk6GJQsqaUBKTNV-1" parent="WIyWlLk6GJQsqaUBKTNV-0" />
        <mxCell id="EmnwZ5WZmF4bjRi8Sd0c-59" value="com.livrai.dao" style="shape=folder;fontStyle=1;spacingTop=10;tabWidth=40;tabHeight=14;tabPosition=left;html=1;verticalAlign=top;" vertex="1" parent="WIyWlLk6GJQsqaUBKTNV-1">
          <mxGeometry x="70" y="140" width="660" height="220" as="geometry" />
        </mxCell>
        <mxCell id="EmnwZ5WZmF4bjRi8Sd0c-58" value="com.livrai.bean" style="shape=folder;fontStyle=1;spacingTop=10;tabWidth=40;tabHeight=14;tabPosition=left;html=1;verticalAlign=top;" vertex="1" parent="WIyWlLk6GJQsqaUBKTNV-1">
          <mxGeometry x="70" y="390" width="660" height="500" as="geometry" />
        </mxCell>
        <mxCell id="EmnwZ5WZmF4bjRi8Sd0c-46" value="&lt;p style=&quot;margin:0px;margin-top:4px;text-align:center;&quot;&gt;&lt;i&gt;&amp;lt;&amp;lt;Interface&amp;gt;&amp;gt;&lt;/i&gt;&lt;br&gt;&lt;b&gt;SqlQuery&amp;lt;T&amp;gt;&lt;/b&gt;&lt;/p&gt;&lt;hr size=&quot;1&quot;&gt;&lt;p style=&quot;margin:0px;margin-left:4px;&quot;&gt;&lt;/p&gt;&lt;hr size=&quot;1&quot;&gt;&lt;p style=&quot;margin:0px;margin-left:4px;&quot;&gt;+ execute(Connection): T&lt;/p&gt;" style="verticalAlign=top;align=left;overflow=fill;fontSize=12;fontFamily=Helvetica;html=1;" vertex="1" parent="WIyWlLk6GJQsqaUBKTNV-1">
          <mxGeometry x="530" y="30" width="200" height="80" as="geometry" />
        </mxCell>
        <mxCell id="EmnwZ5WZmF4bjRi8Sd0c-47" value="&lt;p style=&quot;margin:0px;margin-top:4px;text-align:center;&quot;&gt;&lt;i&gt;&amp;lt;&amp;lt;Abstract&amp;gt;&amp;gt;&lt;/i&gt;&lt;br&gt;&lt;b&gt;AbstractDao&lt;/b&gt;&lt;/p&gt;&lt;hr size=&quot;1&quot;&gt;&lt;p style=&quot;margin:0px;margin-left:4px;&quot;&gt;&lt;/p&gt;&lt;hr size=&quot;1&quot;&gt;&lt;p style=&quot;margin:0px;margin-left:4px;&quot;&gt;# execute(SqlQuery&lt;T&gt;): T&lt;/p&gt;" style="verticalAlign=top;align=left;overflow=fill;fontSize=12;fontFamily=Helvetica;html=1;" vertex="1" parent="WIyWlLk6GJQsqaUBKTNV-1">
          <mxGeometry x="290" y="60" width="200" height="80" as="geometry" />
        </mxCell>
        <mxCell id="EmnwZ5WZmF4bjRi8Sd0c-48" value="&lt;p style=&quot;margin:0px;margin-top:4px;text-align:center;&quot;&gt;&lt;b&gt;User&lt;/b&gt;&lt;/p&gt;&lt;hr size=&quot;1&quot;&gt;&lt;p style=&quot;margin:0px;margin-left:4px;&quot;&gt;- id: int&lt;br&gt;- email: String&lt;br&gt;- name: String&lt;br&gt;- password: String&lt;br&gt;- isAdmin: boolean&lt;/p&gt;&lt;hr size=&quot;1&quot;&gt;&lt;p style=&quot;margin:0px;margin-left:4px;&quot;&gt;+ User()&lt;br&gt;+ User(int, String, String, String, boolean)&lt;br&gt;+ getId(): int&lt;br&gt;+ setId(int): void&lt;br&gt;+ getEmail(): String&lt;br&gt;+ setEmail(String): void&lt;br&gt;+ getName(): String&lt;br&gt;+ setName(String): void&lt;br&gt;+ getPassword(): String&lt;br&gt;+ setPassword(String): void&lt;br&gt;+ isAdmin(): boolean&lt;br&gt;+ setAdmin(boolean): void&lt;/p&gt;" style="verticalAlign=top;align=left;overflow=fill;fontSize=12;fontFamily=Helvetica;html=1;" vertex="1" parent="WIyWlLk6GJQsqaUBKTNV-1">
          <mxGeometry x="90" y="450" width="240" height="310" as="geometry" />
        </mxCell>
        <mxCell id="EmnwZ5WZmF4bjRi8Sd0c-49" value="&lt;p style=&quot;margin:0px;margin-top:4px;text-align:center;&quot;&gt;&lt;b&gt;Delivery&lt;/b&gt;&lt;/p&gt;&lt;hr size=&quot;1&quot;&gt;&lt;p style=&quot;margin:0px;margin-left:4px;&quot;&gt;+ PENDING: String = &quot;En attente&quot;&lt;br&gt;+ ACCEPTED: String = &quot;Acceptée&quot;&lt;br&gt;+ REJECTED: String = &quot;Refusée&quot;&lt;br&gt;+ FINISHED: String = &quot;Terminée&quot;&lt;br&gt;- id: int&lt;br&gt;- userId: int&lt;br&gt;- volume: int&lt;br&gt;- weight: int&lt;br&gt;- price: double&lt;br&gt;- status: String&lt;br&gt;- clientName: String&lt;/p&gt;&lt;hr size=&quot;1&quot;&gt;&lt;p style=&quot;margin:0px;margin-left:4px;&quot;&gt;+ Delivery()&lt;br&gt;+ Delivery(int, int, int, int, double, String)&lt;br&gt;+ getId(): int&lt;br&gt;+ setId(int): void&lt;br&gt;+ getUserId(): int&lt;br&gt;+ setUserId(int): void&lt;br&gt;+ getVolume(): int&lt;br&gt;+ setVolume(int): void&lt;br&gt;+ getWeight(): int&lt;br&gt;+ setWeight(int): void&lt;br&gt;+ getPrice(): double&lt;br&gt;+ setPrice(double): void&lt;br&gt;+ getStatus(): String&lt;br&gt;+ setStatus(String): void&lt;br&gt;+ getClientName(): String&lt;br&gt;+ setClientName(String): void&lt;/p&gt;" style="verticalAlign=top;align=left;overflow=fill;fontSize=12;fontFamily=Helvetica;html=1;" vertex="1" parent="WIyWlLk6GJQsqaUBKTNV-1">
          <mxGeometry x="450" y="420" width="260" height="460" as="geometry" />
        </mxCell>
        <mxCell id="EmnwZ5WZmF4bjRi8Sd0c-50" value="&lt;p style=&quot;margin:0px;margin-top:4px;text-align:center;&quot;&gt;&lt;b&gt;UserDao&lt;/b&gt;&lt;/p&gt;&lt;hr size=&quot;1&quot;&gt;&lt;p style=&quot;margin:0px;margin-left:4px;&quot;&gt;&lt;/p&gt;&lt;hr size=&quot;1&quot;&gt;&lt;p style=&quot;margin:0px;margin-left:4px;&quot;&gt;+ addUser(User): Void&lt;br&gt;+ getUserById(int): User&lt;br&gt;+ getUserByEmail(String): User&lt;br&gt;+ getAllNonAdminUsers(): List&amp;lt;User&amp;gt;&lt;br&gt;+ updateUser(User): Void&lt;/p&gt;" style="verticalAlign=top;align=left;overflow=fill;fontSize=12;fontFamily=Helvetica;html=1;" vertex="1" parent="WIyWlLk6GJQsqaUBKTNV-1">
          <mxGeometry x="90" y="195" width="240" height="120" as="geometry" />
        </mxCell>
        <mxCell id="EmnwZ5WZmF4bjRi8Sd0c-51" value="&lt;p style=&quot;margin:0px;margin-top:4px;text-align:center;&quot;&gt;&lt;b&gt;DeliveryDao&lt;/b&gt;&lt;/p&gt;&lt;hr size=&quot;1&quot;&gt;&lt;p style=&quot;margin:0px;margin-left:4px;&quot;&gt;&lt;/p&gt;&lt;hr size=&quot;1&quot;&gt;&lt;p style=&quot;margin:0px;margin-left:4px;&quot;&gt;+ createDelivery(Delivery): Void&lt;br&gt;+ getDeliveryById(int): Delivery&lt;br&gt;+ getAllDeliveries(): List&amp;lt;Delivery&amp;gt;&lt;br&gt;+ getAllDeliveriesByUserId(int): List&amp;lt;Delivery&amp;gt;&lt;br&gt;+ acceptDeliveryById(int): Void&lt;br&gt;+ rejectDeliveryById(int): Void&lt;br&gt;+ billDeliveryById(int, double): Void&lt;br&gt;+ deleteDelivery(int): Void&lt;/p&gt;" style="verticalAlign=top;align=left;overflow=fill;fontSize=12;fontFamily=Helvetica;html=1;" vertex="1" parent="WIyWlLk6GJQsqaUBKTNV-1">
          <mxGeometry x="450" y="170" width="260" height="170" as="geometry" />
        </mxCell>
        <mxCell id="EmnwZ5WZmF4bjRi8Sd0c-52" value="uses" style="endArrow=open;endSize=12;dashed=1;html=1;entryX=0;entryY=0;exitX=0.5;exitY=0;entryDx=0;entryDy=0;" edge="1" parent="WIyWlLk6GJQsqaUBKTNV-1" source="EmnwZ5WZmF4bjRi8Sd0c-47" target="EmnwZ5WZmF4bjRi8Sd0c-46">
          <mxGeometry width="160" relative="1" as="geometry">
            <mxPoint x="320" y="290" as="sourcePoint" />
            <mxPoint x="480" y="290" as="targetPoint" />
          </mxGeometry>
        </mxCell>
        <mxCell id="EmnwZ5WZmF4bjRi8Sd0c-53" value="extends" style="endArrow=block;endSize=16;endFill=0;html=1;entryX=0;entryY=0.75;exitX=0.5;exitY=0;exitDx=0;exitDy=0;entryDx=0;entryDy=0;" edge="1" parent="WIyWlLk6GJQsqaUBKTNV-1" source="EmnwZ5WZmF4bjRi8Sd0c-50" target="EmnwZ5WZmF4bjRi8Sd0c-47">
          <mxGeometry width="160" relative="1" as="geometry">
            <mxPoint x="320" y="390" as="sourcePoint" />
            <mxPoint x="480" y="390" as="targetPoint" />
          </mxGeometry>
        </mxCell>
        <mxCell id="EmnwZ5WZmF4bjRi8Sd0c-54" value="extends" style="endArrow=block;endSize=16;endFill=0;html=1;entryX=1;entryY=0.75;exitX=0.5;exitY=0;exitDx=0;exitDy=0;entryDx=0;entryDy=0;" edge="1" parent="WIyWlLk6GJQsqaUBKTNV-1" source="EmnwZ5WZmF4bjRi8Sd0c-51" target="EmnwZ5WZmF4bjRi8Sd0c-47">
          <mxGeometry width="160" relative="1" as="geometry">
            <mxPoint x="320" y="390" as="sourcePoint" />
            <mxPoint x="480" y="390" as="targetPoint" />
          </mxGeometry>
        </mxCell>
        <mxCell id="EmnwZ5WZmF4bjRi8Sd0c-55" value="manages" style="endArrow=open;html=1;endSize=12;startArrow=diamondThin;startSize=14;startFill=0;edgeStyle=orthogonalEdgeStyle;entryX=0.5;entryY=0;entryDx=0;entryDy=0;" edge="1" parent="WIyWlLk6GJQsqaUBKTNV-1" source="EmnwZ5WZmF4bjRi8Sd0c-50" target="EmnwZ5WZmF4bjRi8Sd0c-48">
          <mxGeometry relative="1" as="geometry">
            <mxPoint x="320" y="390" as="sourcePoint" />
            <mxPoint x="480" y="390" as="targetPoint" />
          </mxGeometry>
        </mxCell>
        <mxCell id="EmnwZ5WZmF4bjRi8Sd0c-56" value="manages" style="endArrow=open;html=1;endSize=12;startArrow=diamondThin;startSize=14;startFill=0;edgeStyle=orthogonalEdgeStyle;entryX=0.5;entryY=0;exitX=0.5;exitY=1;exitDx=0;exitDy=0;entryDx=0;entryDy=0;" edge="1" parent="WIyWlLk6GJQsqaUBKTNV-1" source="EmnwZ5WZmF4bjRi8Sd0c-51" target="EmnwZ5WZmF4bjRi8Sd0c-49">
          <mxGeometry relative="1" as="geometry">
            <mxPoint x="320" y="390" as="sourcePoint" />
            <mxPoint x="480" y="390" as="targetPoint" />
          </mxGeometry>
        </mxCell>
        <mxCell id="EmnwZ5WZmF4bjRi8Sd0c-57" value="references" style="endArrow=open;html=1;endSize=12;startArrow=none;startSize=14;startFill=0;edgeStyle=orthogonalEdgeStyle;exitX=0;exitY=0.5;entryX=1;entryY=0.5;" edge="1" parent="WIyWlLk6GJQsqaUBKTNV-1" source="EmnwZ5WZmF4bjRi8Sd0c-49" target="EmnwZ5WZmF4bjRi8Sd0c-48">
          <mxGeometry relative="1" as="geometry">
            <mxPoint x="320" y="390" as="sourcePoint" />
            <mxPoint x="480" y="390" as="targetPoint" />
          </mxGeometry>
        </mxCell>
      </root>
    </mxGraphModel>
  </diagram>
</mxfile>
